<?xml version="1.0" standalone="no"?>
<!DOCTYPE svg PUBLIC "-//W3C//DTD SVG 20010904//EN"
 "http://www.w3.org/TR/2001/REC-SVG-20010904/DTD/svg10.dtd">
<svg version="1.0" xmlns="http://www.w3.org/2000/svg"
 width="1024.000000pt" height="1024.000000pt" viewBox="0 0 1024.000000 1024.000000"
 preserveAspectRatio="xMidYMid meet">
<metadata>
Created by potrace 1.14, written by Peter Selinger 2001-2017
</metadata>
<g transform="translate(0.000000,1024.000000) scale(0.100000,-0.100000)"
fill="#000000" stroke="none">
<path d="M4577 8764 c-1 -1 -42 -5 -91 -8 -49 -4 -99 -9 -110 -11 -12 -3 -41
-7 -66 -10 -25 -2 -56 -7 -70 -10 -14 -2 -61 -12 -105 -21 -370 -75 -750 -267
-991 -500 -215 -208 -329 -439 -373 -755 -8 -61 -6 -370 3 -434 2 -16 7 -55
10 -85 4 -30 9 -68 12 -85 7 -43 32 -185 39 -220 4 -16 8 -39 10 -50 75 -430
170 -664 394 -965 81 -110 277 -317 350 -370 19 -14 40 -31 47 -38 41 -40 257
-173 369 -227 198 -95 358 -144 605 -183 59 -9 459 -9 532 1 78 10 205 35 288
57 325 85 674 254 990 479 91 65 184 135 200 151 3 3 30 25 60 50 143 116 447
419 564 563 44 53 83 97 86 97 24 0 19 -847 -5 -1115 -5 -49 -13 -140 -20
-220 -10 -111 -18 -176 -40 -325 -18 -118 -87 -350 -152 -505 -40 -97 -124
-268 -147 -300 -11 -16 -20 -32 -19 -35 2 -7 -100 -179 -166 -280 -90 -139
-311 -437 -344 -465 -7 -5 -28 -30 -49 -55 -20 -25 -55 -65 -77 -90 -22 -25
-41 -47 -41 -50 0 -3 105 -58 233 -122 127 -65 270 -139 317 -164 243 -133
531 -228 790 -259 110 -13 151 -15 245 -15 125 2 202 8 300 26 17 2 41 7 54 9
48 8 216 58 226 66 5 5 15 9 22 9 23 0 221 98 307 152 231 145 510 405 688
643 4 6 18 24 31 40 76 95 214 313 275 430 74 142 140 336 178 520 2 11 6 31
9 45 20 85 42 227 60 375 17 136 23 197 31 290 2 33 6 83 8 110 26 309 26 594
0 720 -2 11 -6 34 -9 50 -3 24 -30 143 -60 270 -8 32 -36 186 -41 225 -8 63
-11 84 -24 135 -12 51 -44 149 -63 195 -6 14 -11 27 -12 30 -19 55 -141 294
-170 330 -6 8 -24 36 -38 62 -15 26 -33 53 -40 60 -6 7 -25 31 -42 53 -72 96
-164 158 -285 191 -166 45 -542 7 -775 -78 -69 -25 -244 -106 -255 -118 -3 -3
-36 -24 -75 -47 -85 -50 -231 -159 -328 -244 -147 -129 -356 -350 -442 -466
-8 -10 -11 12 -12 79 -1 51 -4 107 -7 123 -3 17 -11 59 -17 95 -11 68 -73 326
-88 370 -5 14 -19 59 -31 100 -96 326 -226 575 -434 829 -87 106 -247 264
-336 332 -25 19 -47 37 -50 40 -8 10 -189 139 -195 139 -2 0 -28 15 -57 33
-29 18 -84 49 -123 68 -38 19 -72 37 -75 40 -9 11 -250 96 -350 123 -79 21
-153 38 -260 61 -24 4 -103 18 -125 20 -11 2 -39 6 -62 9 -152 21 -247 28
-426 30 -86 2 -158 1 -160 0z"/>
<path d="M668 5769 c-108 -26 -144 -47 -213 -124 -78 -88 -102 -121 -124 -170
-19 -44 -57 -179 -65 -237 -3 -21 -10 -58 -16 -82 -5 -24 -12 -66 -15 -93 -3
-26 -7 -59 -9 -73 -13 -88 -17 -117 -21 -130 -2 -8 -7 -46 -11 -85 -3 -38 -7
-72 -9 -75 -25 -41 -26 -647 -1 -689 2 -3 7 -26 10 -51 10 -70 13 -84 46 -220
30 -118 120 -378 140 -405 4 -5 11 -21 15 -35 20 -66 161 -333 263 -500 266
-433 530 -754 753 -915 30 -22 56 -42 59 -45 6 -6 71 -49 129 -85 66 -41 231
-122 308 -151 170 -64 239 -83 468 -130 10 -2 37 -6 60 -9 22 -3 56 -8 75 -10
109 -15 200 -19 425 -19 272 0 403 8 615 38 90 13 278 44 300 51 8 2 32 6 52
9 20 3 99 20 175 37 76 17 145 32 153 34 59 12 250 63 376 100 463 136 893
328 1156 515 24 17 54 38 68 48 55 39 198 162 241 208 85 91 189 241 189 273
0 5 -28 25 -62 46 -74 45 -199 127 -388 251 -74 49 -139 91 -145 93 -5 2 -12
7 -15 10 -3 3 -79 55 -170 115 -91 60 -167 112 -170 115 -3 3 -13 11 -22 16
-17 10 -290 198 -457 315 -44 30 -132 93 -196 140 -64 47 -124 90 -134 95 -9
6 -18 12 -21 15 -3 3 -57 44 -120 90 -63 47 -156 116 -206 155 -50 38 -106 81
-124 95 -18 14 -48 36 -65 50 -18 14 -43 32 -55 40 -12 8 -50 35 -83 59 -426
307 -1055 654 -1792 986 -393 177 -416 188 -465 215 -49 28 -182 72 -270 90
-30 5 -66 12 -80 15 -14 3 -45 8 -70 11 -25 3 -56 8 -70 10 -14 3 -95 7 -180
9 -124 2 -170 -1 -232 -16z"/>
</g>
</svg>
